<mxfile host="app.diagrams.net" modified="2023-07-27T17:55:46.352Z" agent="Mozilla/5.0 (Windows NT 10.0; Win64; x64) AppleWebKit/537.36 (KHTML, like Gecko) Chrome/115.0.0.0 Safari/537.36" etag="z5WwsVaOor-9NoUubM3P" version="21.6.5" type="device">
  <diagram id="Fae58t7T6GYvRqYH8ZGL" name="Página-1">
    <mxGraphModel dx="2140" dy="718" grid="1" gridSize="10" guides="1" tooltips="1" connect="1" arrows="1" fold="1" page="1" pageScale="1" pageWidth="827" pageHeight="1169" math="0" shadow="0">
      <root>
        <mxCell id="0" />
        <mxCell id="1" parent="0" />
        <mxCell id="njjs4OCkgifwEYSEYZWW-1" value="Construa a modelagem que represente pessoas e seus dados, observando que:&#xa;&#xa;&#xa;- uma pessoa pode ter vários telefones e vários emails, porém, pode possuir somente uma CNH." style="text;whiteSpace=wrap;" parent="1" vertex="1">
          <mxGeometry x="130" y="30" width="560" height="80" as="geometry" />
        </mxCell>
        <mxCell id="njjs4OCkgifwEYSEYZWW-7" style="edgeStyle=orthogonalEdgeStyle;rounded=0;orthogonalLoop=1;jettySize=auto;html=1;entryX=0.5;entryY=0;entryDx=0;entryDy=0;endArrow=none;endFill=0;" parent="1" source="njjs4OCkgifwEYSEYZWW-2" target="njjs4OCkgifwEYSEYZWW-3" edge="1">
          <mxGeometry relative="1" as="geometry" />
        </mxCell>
        <mxCell id="HZEHzv3eMozTv1yZaY8q-67" style="edgeStyle=orthogonalEdgeStyle;rounded=0;orthogonalLoop=1;jettySize=auto;html=1;entryX=0;entryY=0.5;entryDx=0;entryDy=0;endArrow=none;endFill=0;" parent="1" source="njjs4OCkgifwEYSEYZWW-2" target="HZEHzv3eMozTv1yZaY8q-66" edge="1">
          <mxGeometry relative="1" as="geometry" />
        </mxCell>
        <mxCell id="njjs4OCkgifwEYSEYZWW-2" value="Pessoa" style="rounded=0;whiteSpace=wrap;html=1;" parent="1" vertex="1">
          <mxGeometry x="220" y="200" width="120" height="60" as="geometry" />
        </mxCell>
        <mxCell id="njjs4OCkgifwEYSEYZWW-9" style="edgeStyle=orthogonalEdgeStyle;rounded=0;orthogonalLoop=1;jettySize=auto;html=1;entryX=0.5;entryY=0;entryDx=0;entryDy=0;exitX=0.5;exitY=1;exitDx=0;exitDy=0;endArrow=none;endFill=0;" parent="1" source="njjs4OCkgifwEYSEYZWW-3" target="njjs4OCkgifwEYSEYZWW-6" edge="1">
          <mxGeometry relative="1" as="geometry">
            <mxPoint x="240" y="350" as="sourcePoint" />
            <Array as="points">
              <mxPoint x="280" y="460" />
              <mxPoint x="280" y="460" />
            </Array>
          </mxGeometry>
        </mxCell>
        <mxCell id="njjs4OCkgifwEYSEYZWW-3" value="possui" style="rhombus;whiteSpace=wrap;html=1;" parent="1" vertex="1">
          <mxGeometry x="240" y="310" width="80" height="80" as="geometry" />
        </mxCell>
        <mxCell id="njjs4OCkgifwEYSEYZWW-5" value="Email" style="rounded=0;whiteSpace=wrap;html=1;" parent="1" vertex="1">
          <mxGeometry x="-90" y="200" width="120" height="60" as="geometry" />
        </mxCell>
        <mxCell id="njjs4OCkgifwEYSEYZWW-6" value="Telefone" style="rounded=0;whiteSpace=wrap;html=1;" parent="1" vertex="1">
          <mxGeometry x="220" y="440" width="120" height="60" as="geometry" />
        </mxCell>
        <mxCell id="njjs4OCkgifwEYSEYZWW-11" value="1" style="text;html=1;strokeColor=none;fillColor=none;align=center;verticalAlign=middle;whiteSpace=wrap;rounded=0;" parent="1" vertex="1">
          <mxGeometry x="280" y="260" width="20" height="30" as="geometry" />
        </mxCell>
        <mxCell id="njjs4OCkgifwEYSEYZWW-14" value="N" style="text;html=1;strokeColor=none;fillColor=none;align=center;verticalAlign=middle;whiteSpace=wrap;rounded=0;" parent="1" vertex="1">
          <mxGeometry x="280" y="410" width="20" height="30" as="geometry" />
        </mxCell>
        <mxCell id="HZEHzv3eMozTv1yZaY8q-1" value="CONCEITUAL" style="rounded=1;whiteSpace=wrap;html=1;fillColor=#f8cecc;strokeColor=#b85450;" parent="1" vertex="1">
          <mxGeometry x="220" y="110" width="120" height="60" as="geometry" />
        </mxCell>
        <mxCell id="HZEHzv3eMozTv1yZaY8q-2" value="FISICO" style="rounded=1;whiteSpace=wrap;html=1;fillColor=#f8cecc;strokeColor=#b85450;" parent="1" vertex="1">
          <mxGeometry x="1265" y="100" width="120" height="60" as="geometry" />
        </mxCell>
        <mxCell id="HZEHzv3eMozTv1yZaY8q-3" value="LOGICO" style="rounded=1;whiteSpace=wrap;html=1;fillColor=#f8cecc;strokeColor=#b85450;" parent="1" vertex="1">
          <mxGeometry x="820" y="110" width="120" height="60" as="geometry" />
        </mxCell>
        <mxCell id="HZEHzv3eMozTv1yZaY8q-4" value="Pessoa" style="shape=table;startSize=30;container=1;collapsible=1;childLayout=tableLayout;fixedRows=1;rowLines=0;fontStyle=1;align=center;resizeLast=1;html=1;" parent="1" vertex="1">
          <mxGeometry x="600" y="240" width="180" height="120" as="geometry" />
        </mxCell>
        <mxCell id="HZEHzv3eMozTv1yZaY8q-5" value="" style="shape=tableRow;horizontal=0;startSize=0;swimlaneHead=0;swimlaneBody=0;fillColor=none;collapsible=0;dropTarget=0;points=[[0,0.5],[1,0.5]];portConstraint=eastwest;top=0;left=0;right=0;bottom=1;" parent="HZEHzv3eMozTv1yZaY8q-4" vertex="1">
          <mxGeometry y="30" width="180" height="30" as="geometry" />
        </mxCell>
        <mxCell id="HZEHzv3eMozTv1yZaY8q-6" value="PK" style="shape=partialRectangle;connectable=0;fillColor=none;top=0;left=0;bottom=0;right=0;fontStyle=1;overflow=hidden;whiteSpace=wrap;html=1;" parent="HZEHzv3eMozTv1yZaY8q-5" vertex="1">
          <mxGeometry width="30" height="30" as="geometry">
            <mxRectangle width="30" height="30" as="alternateBounds" />
          </mxGeometry>
        </mxCell>
        <mxCell id="HZEHzv3eMozTv1yZaY8q-7" value="IdPessoa" style="shape=partialRectangle;connectable=0;fillColor=none;top=0;left=0;bottom=0;right=0;align=left;spacingLeft=6;fontStyle=5;overflow=hidden;whiteSpace=wrap;html=1;" parent="HZEHzv3eMozTv1yZaY8q-5" vertex="1">
          <mxGeometry x="30" width="150" height="30" as="geometry">
            <mxRectangle width="150" height="30" as="alternateBounds" />
          </mxGeometry>
        </mxCell>
        <mxCell id="HZEHzv3eMozTv1yZaY8q-8" value="" style="shape=tableRow;horizontal=0;startSize=0;swimlaneHead=0;swimlaneBody=0;fillColor=none;collapsible=0;dropTarget=0;points=[[0,0.5],[1,0.5]];portConstraint=eastwest;top=0;left=0;right=0;bottom=0;" parent="HZEHzv3eMozTv1yZaY8q-4" vertex="1">
          <mxGeometry y="60" width="180" height="30" as="geometry" />
        </mxCell>
        <mxCell id="HZEHzv3eMozTv1yZaY8q-9" value="" style="shape=partialRectangle;connectable=0;fillColor=none;top=0;left=0;bottom=0;right=0;editable=1;overflow=hidden;whiteSpace=wrap;html=1;" parent="HZEHzv3eMozTv1yZaY8q-8" vertex="1">
          <mxGeometry width="30" height="30" as="geometry">
            <mxRectangle width="30" height="30" as="alternateBounds" />
          </mxGeometry>
        </mxCell>
        <mxCell id="HZEHzv3eMozTv1yZaY8q-10" value="Nome" style="shape=partialRectangle;connectable=0;fillColor=none;top=0;left=0;bottom=0;right=0;align=left;spacingLeft=6;overflow=hidden;whiteSpace=wrap;html=1;" parent="HZEHzv3eMozTv1yZaY8q-8" vertex="1">
          <mxGeometry x="30" width="150" height="30" as="geometry">
            <mxRectangle width="150" height="30" as="alternateBounds" />
          </mxGeometry>
        </mxCell>
        <mxCell id="HZEHzv3eMozTv1yZaY8q-69" style="shape=tableRow;horizontal=0;startSize=0;swimlaneHead=0;swimlaneBody=0;fillColor=none;collapsible=0;dropTarget=0;points=[[0,0.5],[1,0.5]];portConstraint=eastwest;top=0;left=0;right=0;bottom=0;" parent="HZEHzv3eMozTv1yZaY8q-4" vertex="1">
          <mxGeometry y="90" width="180" height="30" as="geometry" />
        </mxCell>
        <mxCell id="HZEHzv3eMozTv1yZaY8q-70" style="shape=partialRectangle;connectable=0;fillColor=none;top=0;left=0;bottom=0;right=0;editable=1;overflow=hidden;whiteSpace=wrap;html=1;" parent="HZEHzv3eMozTv1yZaY8q-69" vertex="1">
          <mxGeometry width="30" height="30" as="geometry">
            <mxRectangle width="30" height="30" as="alternateBounds" />
          </mxGeometry>
        </mxCell>
        <mxCell id="HZEHzv3eMozTv1yZaY8q-71" value="Cnh" style="shape=partialRectangle;connectable=0;fillColor=none;top=0;left=0;bottom=0;right=0;align=left;spacingLeft=6;overflow=hidden;whiteSpace=wrap;html=1;" parent="HZEHzv3eMozTv1yZaY8q-69" vertex="1">
          <mxGeometry x="30" width="150" height="30" as="geometry">
            <mxRectangle width="150" height="30" as="alternateBounds" />
          </mxGeometry>
        </mxCell>
        <mxCell id="HZEHzv3eMozTv1yZaY8q-30" value="Telefone" style="shape=table;startSize=30;container=1;collapsible=1;childLayout=tableLayout;fixedRows=1;rowLines=0;fontStyle=1;align=center;resizeLast=1;html=1;whiteSpace=wrap;" parent="1" vertex="1">
          <mxGeometry x="920" y="240" width="180" height="120" as="geometry" />
        </mxCell>
        <mxCell id="HZEHzv3eMozTv1yZaY8q-31" value="" style="shape=tableRow;horizontal=0;startSize=0;swimlaneHead=0;swimlaneBody=0;fillColor=none;collapsible=0;dropTarget=0;points=[[0,0.5],[1,0.5]];portConstraint=eastwest;top=0;left=0;right=0;bottom=0;html=1;" parent="HZEHzv3eMozTv1yZaY8q-30" vertex="1">
          <mxGeometry y="30" width="180" height="30" as="geometry" />
        </mxCell>
        <mxCell id="HZEHzv3eMozTv1yZaY8q-32" value="PK" style="shape=partialRectangle;connectable=0;fillColor=none;top=0;left=0;bottom=0;right=0;fontStyle=1;overflow=hidden;html=1;whiteSpace=wrap;" parent="HZEHzv3eMozTv1yZaY8q-31" vertex="1">
          <mxGeometry width="60" height="30" as="geometry">
            <mxRectangle width="60" height="30" as="alternateBounds" />
          </mxGeometry>
        </mxCell>
        <mxCell id="HZEHzv3eMozTv1yZaY8q-33" value="IdTelefone" style="shape=partialRectangle;connectable=0;fillColor=none;top=0;left=0;bottom=0;right=0;align=left;spacingLeft=6;fontStyle=5;overflow=hidden;html=1;whiteSpace=wrap;" parent="HZEHzv3eMozTv1yZaY8q-31" vertex="1">
          <mxGeometry x="60" width="120" height="30" as="geometry">
            <mxRectangle width="120" height="30" as="alternateBounds" />
          </mxGeometry>
        </mxCell>
        <mxCell id="HZEHzv3eMozTv1yZaY8q-34" value="" style="shape=tableRow;horizontal=0;startSize=0;swimlaneHead=0;swimlaneBody=0;fillColor=none;collapsible=0;dropTarget=0;points=[[0,0.5],[1,0.5]];portConstraint=eastwest;top=0;left=0;right=0;bottom=1;html=1;" parent="HZEHzv3eMozTv1yZaY8q-30" vertex="1">
          <mxGeometry y="60" width="180" height="30" as="geometry" />
        </mxCell>
        <mxCell id="HZEHzv3eMozTv1yZaY8q-35" value="FK" style="shape=partialRectangle;connectable=0;fillColor=none;top=0;left=0;bottom=0;right=0;fontStyle=1;overflow=hidden;html=1;whiteSpace=wrap;" parent="HZEHzv3eMozTv1yZaY8q-34" vertex="1">
          <mxGeometry width="60" height="30" as="geometry">
            <mxRectangle width="60" height="30" as="alternateBounds" />
          </mxGeometry>
        </mxCell>
        <mxCell id="HZEHzv3eMozTv1yZaY8q-36" value="IdPessoa" style="shape=partialRectangle;connectable=0;fillColor=none;top=0;left=0;bottom=0;right=0;align=left;spacingLeft=6;fontStyle=5;overflow=hidden;html=1;whiteSpace=wrap;" parent="HZEHzv3eMozTv1yZaY8q-34" vertex="1">
          <mxGeometry x="60" width="120" height="30" as="geometry">
            <mxRectangle width="120" height="30" as="alternateBounds" />
          </mxGeometry>
        </mxCell>
        <mxCell id="HZEHzv3eMozTv1yZaY8q-37" value="" style="shape=tableRow;horizontal=0;startSize=0;swimlaneHead=0;swimlaneBody=0;fillColor=none;collapsible=0;dropTarget=0;points=[[0,0.5],[1,0.5]];portConstraint=eastwest;top=0;left=0;right=0;bottom=0;html=1;" parent="HZEHzv3eMozTv1yZaY8q-30" vertex="1">
          <mxGeometry y="90" width="180" height="30" as="geometry" />
        </mxCell>
        <mxCell id="HZEHzv3eMozTv1yZaY8q-38" value="" style="shape=partialRectangle;connectable=0;fillColor=none;top=0;left=0;bottom=0;right=0;editable=1;overflow=hidden;html=1;whiteSpace=wrap;" parent="HZEHzv3eMozTv1yZaY8q-37" vertex="1">
          <mxGeometry width="60" height="30" as="geometry">
            <mxRectangle width="60" height="30" as="alternateBounds" />
          </mxGeometry>
        </mxCell>
        <mxCell id="HZEHzv3eMozTv1yZaY8q-39" value="Numero" style="shape=partialRectangle;connectable=0;fillColor=none;top=0;left=0;bottom=0;right=0;align=left;spacingLeft=6;overflow=hidden;html=1;whiteSpace=wrap;" parent="HZEHzv3eMozTv1yZaY8q-37" vertex="1">
          <mxGeometry x="60" width="120" height="30" as="geometry">
            <mxRectangle width="120" height="30" as="alternateBounds" />
          </mxGeometry>
        </mxCell>
        <mxCell id="HZEHzv3eMozTv1yZaY8q-43" value="Email" style="shape=table;startSize=30;container=1;collapsible=1;childLayout=tableLayout;fixedRows=1;rowLines=0;fontStyle=1;align=center;resizeLast=1;html=1;whiteSpace=wrap;" parent="1" vertex="1">
          <mxGeometry x="920" y="390" width="180" height="120" as="geometry" />
        </mxCell>
        <mxCell id="HZEHzv3eMozTv1yZaY8q-44" value="" style="shape=tableRow;horizontal=0;startSize=0;swimlaneHead=0;swimlaneBody=0;fillColor=none;collapsible=0;dropTarget=0;points=[[0,0.5],[1,0.5]];portConstraint=eastwest;top=0;left=0;right=0;bottom=0;html=1;" parent="HZEHzv3eMozTv1yZaY8q-43" vertex="1">
          <mxGeometry y="30" width="180" height="30" as="geometry" />
        </mxCell>
        <mxCell id="HZEHzv3eMozTv1yZaY8q-45" value="PK" style="shape=partialRectangle;connectable=0;fillColor=none;top=0;left=0;bottom=0;right=0;fontStyle=1;overflow=hidden;html=1;whiteSpace=wrap;" parent="HZEHzv3eMozTv1yZaY8q-44" vertex="1">
          <mxGeometry width="60" height="30" as="geometry">
            <mxRectangle width="60" height="30" as="alternateBounds" />
          </mxGeometry>
        </mxCell>
        <mxCell id="HZEHzv3eMozTv1yZaY8q-46" value="IdEmail" style="shape=partialRectangle;connectable=0;fillColor=none;top=0;left=0;bottom=0;right=0;align=left;spacingLeft=6;fontStyle=5;overflow=hidden;html=1;whiteSpace=wrap;" parent="HZEHzv3eMozTv1yZaY8q-44" vertex="1">
          <mxGeometry x="60" width="120" height="30" as="geometry">
            <mxRectangle width="120" height="30" as="alternateBounds" />
          </mxGeometry>
        </mxCell>
        <mxCell id="HZEHzv3eMozTv1yZaY8q-47" value="" style="shape=tableRow;horizontal=0;startSize=0;swimlaneHead=0;swimlaneBody=0;fillColor=none;collapsible=0;dropTarget=0;points=[[0,0.5],[1,0.5]];portConstraint=eastwest;top=0;left=0;right=0;bottom=1;html=1;" parent="HZEHzv3eMozTv1yZaY8q-43" vertex="1">
          <mxGeometry y="60" width="180" height="30" as="geometry" />
        </mxCell>
        <mxCell id="HZEHzv3eMozTv1yZaY8q-48" value="FK" style="shape=partialRectangle;connectable=0;fillColor=none;top=0;left=0;bottom=0;right=0;fontStyle=1;overflow=hidden;html=1;whiteSpace=wrap;" parent="HZEHzv3eMozTv1yZaY8q-47" vertex="1">
          <mxGeometry width="60" height="30" as="geometry">
            <mxRectangle width="60" height="30" as="alternateBounds" />
          </mxGeometry>
        </mxCell>
        <mxCell id="HZEHzv3eMozTv1yZaY8q-49" value="IdPessoa" style="shape=partialRectangle;connectable=0;fillColor=none;top=0;left=0;bottom=0;right=0;align=left;spacingLeft=6;fontStyle=5;overflow=hidden;html=1;whiteSpace=wrap;" parent="HZEHzv3eMozTv1yZaY8q-47" vertex="1">
          <mxGeometry x="60" width="120" height="30" as="geometry">
            <mxRectangle width="120" height="30" as="alternateBounds" />
          </mxGeometry>
        </mxCell>
        <mxCell id="HZEHzv3eMozTv1yZaY8q-50" value="" style="shape=tableRow;horizontal=0;startSize=0;swimlaneHead=0;swimlaneBody=0;fillColor=none;collapsible=0;dropTarget=0;points=[[0,0.5],[1,0.5]];portConstraint=eastwest;top=0;left=0;right=0;bottom=0;html=1;" parent="HZEHzv3eMozTv1yZaY8q-43" vertex="1">
          <mxGeometry y="90" width="180" height="30" as="geometry" />
        </mxCell>
        <mxCell id="HZEHzv3eMozTv1yZaY8q-51" value="" style="shape=partialRectangle;connectable=0;fillColor=none;top=0;left=0;bottom=0;right=0;editable=1;overflow=hidden;html=1;whiteSpace=wrap;" parent="HZEHzv3eMozTv1yZaY8q-50" vertex="1">
          <mxGeometry width="60" height="30" as="geometry">
            <mxRectangle width="60" height="30" as="alternateBounds" />
          </mxGeometry>
        </mxCell>
        <mxCell id="HZEHzv3eMozTv1yZaY8q-52" value="EnderecoEmail" style="shape=partialRectangle;connectable=0;fillColor=none;top=0;left=0;bottom=0;right=0;align=left;spacingLeft=6;overflow=hidden;html=1;whiteSpace=wrap;" parent="HZEHzv3eMozTv1yZaY8q-50" vertex="1">
          <mxGeometry x="60" width="120" height="30" as="geometry">
            <mxRectangle width="120" height="30" as="alternateBounds" />
          </mxGeometry>
        </mxCell>
        <mxCell id="HZEHzv3eMozTv1yZaY8q-65" value="" style="edgeStyle=entityRelationEdgeStyle;fontSize=12;html=1;endArrow=ERoneToMany;rounded=0;exitX=1;exitY=0.5;exitDx=0;exitDy=0;entryX=0;entryY=0.5;entryDx=0;entryDy=0;" parent="1" source="HZEHzv3eMozTv1yZaY8q-5" target="HZEHzv3eMozTv1yZaY8q-31" edge="1">
          <mxGeometry width="100" height="100" relative="1" as="geometry">
            <mxPoint x="760" y="420" as="sourcePoint" />
            <mxPoint x="860" y="320" as="targetPoint" />
            <Array as="points">
              <mxPoint x="640" y="350" />
              <mxPoint x="690" y="360" />
              <mxPoint x="630" y="350" />
              <mxPoint x="630" y="340" />
            </Array>
          </mxGeometry>
        </mxCell>
        <mxCell id="HZEHzv3eMozTv1yZaY8q-66" value="Cnh" style="ellipse;whiteSpace=wrap;html=1;" parent="1" vertex="1">
          <mxGeometry x="414" y="205" width="76" height="50" as="geometry" />
        </mxCell>
        <mxCell id="HZEHzv3eMozTv1yZaY8q-72" value="" style="edgeStyle=entityRelationEdgeStyle;fontSize=12;html=1;endArrow=ERoneToMany;rounded=0;exitX=1.002;exitY=0.773;exitDx=0;exitDy=0;entryX=0;entryY=0.5;entryDx=0;entryDy=0;exitPerimeter=0;" parent="1" source="HZEHzv3eMozTv1yZaY8q-5" target="HZEHzv3eMozTv1yZaY8q-44" edge="1">
          <mxGeometry width="100" height="100" relative="1" as="geometry">
            <mxPoint x="780" y="440" as="sourcePoint" />
            <mxPoint x="860" y="475" as="targetPoint" />
            <Array as="points">
              <mxPoint x="640" y="505" />
              <mxPoint x="690" y="515" />
              <mxPoint x="630" y="505" />
              <mxPoint x="630" y="495" />
            </Array>
          </mxGeometry>
        </mxCell>
        <mxCell id="g3BM4RpCBtxZuqTighNJ-3" value="" style="edgeStyle=orthogonalEdgeStyle;rounded=0;orthogonalLoop=1;jettySize=auto;html=1;endArrow=none;endFill=0;" edge="1" parent="1" source="g3BM4RpCBtxZuqTighNJ-1" target="njjs4OCkgifwEYSEYZWW-5">
          <mxGeometry relative="1" as="geometry" />
        </mxCell>
        <mxCell id="g3BM4RpCBtxZuqTighNJ-4" value="" style="edgeStyle=orthogonalEdgeStyle;rounded=0;orthogonalLoop=1;jettySize=auto;html=1;endArrow=none;endFill=0;" edge="1" parent="1" source="g3BM4RpCBtxZuqTighNJ-1" target="njjs4OCkgifwEYSEYZWW-2">
          <mxGeometry relative="1" as="geometry" />
        </mxCell>
        <mxCell id="g3BM4RpCBtxZuqTighNJ-1" value="possui" style="rhombus;whiteSpace=wrap;html=1;" vertex="1" parent="1">
          <mxGeometry x="80" y="190" width="80" height="80" as="geometry" />
        </mxCell>
        <mxCell id="g3BM4RpCBtxZuqTighNJ-5" value="N" style="text;html=1;strokeColor=none;fillColor=none;align=center;verticalAlign=middle;whiteSpace=wrap;rounded=0;" vertex="1" parent="1">
          <mxGeometry x="30" y="205" width="20" height="30" as="geometry" />
        </mxCell>
        <mxCell id="g3BM4RpCBtxZuqTighNJ-6" value="1" style="text;html=1;strokeColor=none;fillColor=none;align=center;verticalAlign=middle;whiteSpace=wrap;rounded=0;" vertex="1" parent="1">
          <mxGeometry x="200" y="205" width="20" height="30" as="geometry" />
        </mxCell>
        <mxCell id="g3BM4RpCBtxZuqTighNJ-7" value="Pessoa" style="shape=table;startSize=35;container=1;collapsible=0;childLayout=tableLayout;strokeColor=default;fontSize=16;fontStyle=1" vertex="1" parent="1">
          <mxGeometry x="1230" y="205" width="190" height="110" as="geometry" />
        </mxCell>
        <mxCell id="g3BM4RpCBtxZuqTighNJ-8" value="" style="shape=tableRow;horizontal=0;startSize=0;swimlaneHead=0;swimlaneBody=0;strokeColor=inherit;top=0;left=0;bottom=0;right=0;collapsible=0;dropTarget=0;fillColor=none;points=[[0,0.5],[1,0.5]];portConstraint=eastwest;fontSize=16;" vertex="1" parent="g3BM4RpCBtxZuqTighNJ-7">
          <mxGeometry y="35" width="190" height="38" as="geometry" />
        </mxCell>
        <mxCell id="g3BM4RpCBtxZuqTighNJ-9" value="&lt;b&gt;IdPessoa&lt;/b&gt;" style="shape=partialRectangle;html=1;whiteSpace=wrap;connectable=0;strokeColor=inherit;overflow=hidden;fillColor=none;top=0;left=0;bottom=0;right=0;pointerEvents=1;fontSize=16;" vertex="1" parent="g3BM4RpCBtxZuqTighNJ-8">
          <mxGeometry width="80" height="38" as="geometry">
            <mxRectangle width="80" height="38" as="alternateBounds" />
          </mxGeometry>
        </mxCell>
        <mxCell id="g3BM4RpCBtxZuqTighNJ-10" value="&lt;b&gt;Nome&lt;/b&gt;" style="shape=partialRectangle;html=1;whiteSpace=wrap;connectable=0;strokeColor=inherit;overflow=hidden;fillColor=none;top=0;left=0;bottom=0;right=0;pointerEvents=1;fontSize=16;" vertex="1" parent="g3BM4RpCBtxZuqTighNJ-8">
          <mxGeometry x="80" width="60" height="38" as="geometry">
            <mxRectangle width="60" height="38" as="alternateBounds" />
          </mxGeometry>
        </mxCell>
        <mxCell id="g3BM4RpCBtxZuqTighNJ-11" value="&lt;b&gt;Cnh&lt;/b&gt;" style="shape=partialRectangle;html=1;whiteSpace=wrap;connectable=0;strokeColor=inherit;overflow=hidden;fillColor=none;top=0;left=0;bottom=0;right=0;pointerEvents=1;fontSize=16;" vertex="1" parent="g3BM4RpCBtxZuqTighNJ-8">
          <mxGeometry x="140" width="50" height="38" as="geometry">
            <mxRectangle width="50" height="38" as="alternateBounds" />
          </mxGeometry>
        </mxCell>
        <mxCell id="g3BM4RpCBtxZuqTighNJ-12" value="" style="shape=tableRow;horizontal=0;startSize=0;swimlaneHead=0;swimlaneBody=0;strokeColor=inherit;top=0;left=0;bottom=0;right=0;collapsible=0;dropTarget=0;fillColor=none;points=[[0,0.5],[1,0.5]];portConstraint=eastwest;fontSize=16;" vertex="1" parent="g3BM4RpCBtxZuqTighNJ-7">
          <mxGeometry y="73" width="190" height="37" as="geometry" />
        </mxCell>
        <mxCell id="g3BM4RpCBtxZuqTighNJ-13" value="" style="shape=partialRectangle;html=1;whiteSpace=wrap;connectable=0;strokeColor=inherit;overflow=hidden;fillColor=none;top=0;left=0;bottom=0;right=0;pointerEvents=1;fontSize=16;" vertex="1" parent="g3BM4RpCBtxZuqTighNJ-12">
          <mxGeometry width="80" height="37" as="geometry">
            <mxRectangle width="80" height="37" as="alternateBounds" />
          </mxGeometry>
        </mxCell>
        <mxCell id="g3BM4RpCBtxZuqTighNJ-14" value="" style="shape=partialRectangle;html=1;whiteSpace=wrap;connectable=0;strokeColor=inherit;overflow=hidden;fillColor=none;top=0;left=0;bottom=0;right=0;pointerEvents=1;fontSize=16;" vertex="1" parent="g3BM4RpCBtxZuqTighNJ-12">
          <mxGeometry x="80" width="60" height="37" as="geometry">
            <mxRectangle width="60" height="37" as="alternateBounds" />
          </mxGeometry>
        </mxCell>
        <mxCell id="g3BM4RpCBtxZuqTighNJ-15" value="" style="shape=partialRectangle;html=1;whiteSpace=wrap;connectable=0;strokeColor=inherit;overflow=hidden;fillColor=none;top=0;left=0;bottom=0;right=0;pointerEvents=1;fontSize=16;" vertex="1" parent="g3BM4RpCBtxZuqTighNJ-12">
          <mxGeometry x="140" width="50" height="37" as="geometry">
            <mxRectangle width="50" height="37" as="alternateBounds" />
          </mxGeometry>
        </mxCell>
        <mxCell id="g3BM4RpCBtxZuqTighNJ-20" value="Telefone" style="shape=table;startSize=35;container=1;collapsible=0;childLayout=tableLayout;strokeColor=default;fontSize=16;fontStyle=1" vertex="1" parent="1">
          <mxGeometry x="1230" y="330" width="240" height="110" as="geometry" />
        </mxCell>
        <mxCell id="g3BM4RpCBtxZuqTighNJ-21" value="" style="shape=tableRow;horizontal=0;startSize=0;swimlaneHead=0;swimlaneBody=0;strokeColor=inherit;top=0;left=0;bottom=0;right=0;collapsible=0;dropTarget=0;fillColor=none;points=[[0,0.5],[1,0.5]];portConstraint=eastwest;fontSize=16;" vertex="1" parent="g3BM4RpCBtxZuqTighNJ-20">
          <mxGeometry y="35" width="240" height="38" as="geometry" />
        </mxCell>
        <mxCell id="g3BM4RpCBtxZuqTighNJ-22" value="&lt;b&gt;IdTelefone&lt;/b&gt;" style="shape=partialRectangle;html=1;whiteSpace=wrap;connectable=0;strokeColor=inherit;overflow=hidden;fillColor=none;top=0;left=0;bottom=0;right=0;pointerEvents=1;fontSize=16;" vertex="1" parent="g3BM4RpCBtxZuqTighNJ-21">
          <mxGeometry width="80" height="38" as="geometry">
            <mxRectangle width="80" height="38" as="alternateBounds" />
          </mxGeometry>
        </mxCell>
        <mxCell id="g3BM4RpCBtxZuqTighNJ-23" value="&lt;b&gt;IdPessoa&lt;/b&gt;" style="shape=partialRectangle;html=1;whiteSpace=wrap;connectable=0;strokeColor=inherit;overflow=hidden;fillColor=none;top=0;left=0;bottom=0;right=0;pointerEvents=1;fontSize=16;" vertex="1" parent="g3BM4RpCBtxZuqTighNJ-21">
          <mxGeometry x="80" width="90" height="38" as="geometry">
            <mxRectangle width="90" height="38" as="alternateBounds" />
          </mxGeometry>
        </mxCell>
        <mxCell id="g3BM4RpCBtxZuqTighNJ-24" value="&lt;b&gt;Numero&lt;/b&gt;" style="shape=partialRectangle;html=1;whiteSpace=wrap;connectable=0;strokeColor=inherit;overflow=hidden;fillColor=none;top=0;left=0;bottom=0;right=0;pointerEvents=1;fontSize=16;" vertex="1" parent="g3BM4RpCBtxZuqTighNJ-21">
          <mxGeometry x="170" width="70" height="38" as="geometry">
            <mxRectangle width="70" height="38" as="alternateBounds" />
          </mxGeometry>
        </mxCell>
        <mxCell id="g3BM4RpCBtxZuqTighNJ-25" value="" style="shape=tableRow;horizontal=0;startSize=0;swimlaneHead=0;swimlaneBody=0;strokeColor=inherit;top=0;left=0;bottom=0;right=0;collapsible=0;dropTarget=0;fillColor=none;points=[[0,0.5],[1,0.5]];portConstraint=eastwest;fontSize=16;" vertex="1" parent="g3BM4RpCBtxZuqTighNJ-20">
          <mxGeometry y="73" width="240" height="37" as="geometry" />
        </mxCell>
        <mxCell id="g3BM4RpCBtxZuqTighNJ-26" value="" style="shape=partialRectangle;html=1;whiteSpace=wrap;connectable=0;strokeColor=inherit;overflow=hidden;fillColor=none;top=0;left=0;bottom=0;right=0;pointerEvents=1;fontSize=16;" vertex="1" parent="g3BM4RpCBtxZuqTighNJ-25">
          <mxGeometry width="80" height="37" as="geometry">
            <mxRectangle width="80" height="37" as="alternateBounds" />
          </mxGeometry>
        </mxCell>
        <mxCell id="g3BM4RpCBtxZuqTighNJ-27" value="" style="shape=partialRectangle;html=1;whiteSpace=wrap;connectable=0;strokeColor=inherit;overflow=hidden;fillColor=none;top=0;left=0;bottom=0;right=0;pointerEvents=1;fontSize=16;" vertex="1" parent="g3BM4RpCBtxZuqTighNJ-25">
          <mxGeometry x="80" width="90" height="37" as="geometry">
            <mxRectangle width="90" height="37" as="alternateBounds" />
          </mxGeometry>
        </mxCell>
        <mxCell id="g3BM4RpCBtxZuqTighNJ-28" value="" style="shape=partialRectangle;html=1;whiteSpace=wrap;connectable=0;strokeColor=inherit;overflow=hidden;fillColor=none;top=0;left=0;bottom=0;right=0;pointerEvents=1;fontSize=16;" vertex="1" parent="g3BM4RpCBtxZuqTighNJ-25">
          <mxGeometry x="170" width="70" height="37" as="geometry">
            <mxRectangle width="70" height="37" as="alternateBounds" />
          </mxGeometry>
        </mxCell>
        <mxCell id="g3BM4RpCBtxZuqTighNJ-29" value="Email" style="shape=table;startSize=35;container=1;collapsible=0;childLayout=tableLayout;strokeColor=default;fontSize=16;fontStyle=1" vertex="1" parent="1">
          <mxGeometry x="1230" y="450" width="260" height="110" as="geometry" />
        </mxCell>
        <mxCell id="g3BM4RpCBtxZuqTighNJ-30" value="" style="shape=tableRow;horizontal=0;startSize=0;swimlaneHead=0;swimlaneBody=0;strokeColor=inherit;top=0;left=0;bottom=0;right=0;collapsible=0;dropTarget=0;fillColor=none;points=[[0,0.5],[1,0.5]];portConstraint=eastwest;fontSize=16;" vertex="1" parent="g3BM4RpCBtxZuqTighNJ-29">
          <mxGeometry y="35" width="260" height="38" as="geometry" />
        </mxCell>
        <mxCell id="g3BM4RpCBtxZuqTighNJ-31" value="&lt;b&gt;IdEmail&lt;/b&gt;" style="shape=partialRectangle;html=1;whiteSpace=wrap;connectable=0;strokeColor=inherit;overflow=hidden;fillColor=none;top=0;left=0;bottom=0;right=0;pointerEvents=1;fontSize=16;" vertex="1" parent="g3BM4RpCBtxZuqTighNJ-30">
          <mxGeometry width="80" height="38" as="geometry">
            <mxRectangle width="80" height="38" as="alternateBounds" />
          </mxGeometry>
        </mxCell>
        <mxCell id="g3BM4RpCBtxZuqTighNJ-32" value="&lt;b&gt;IdPessoa&lt;/b&gt;" style="shape=partialRectangle;html=1;whiteSpace=wrap;connectable=0;strokeColor=inherit;overflow=hidden;fillColor=none;top=0;left=0;bottom=0;right=0;pointerEvents=1;fontSize=16;" vertex="1" parent="g3BM4RpCBtxZuqTighNJ-30">
          <mxGeometry x="80" width="90" height="38" as="geometry">
            <mxRectangle width="90" height="38" as="alternateBounds" />
          </mxGeometry>
        </mxCell>
        <mxCell id="g3BM4RpCBtxZuqTighNJ-33" value="&lt;b&gt;Endereco&lt;/b&gt;" style="shape=partialRectangle;html=1;whiteSpace=wrap;connectable=0;strokeColor=inherit;overflow=hidden;fillColor=none;top=0;left=0;bottom=0;right=0;pointerEvents=1;fontSize=16;" vertex="1" parent="g3BM4RpCBtxZuqTighNJ-30">
          <mxGeometry x="170" width="90" height="38" as="geometry">
            <mxRectangle width="90" height="38" as="alternateBounds" />
          </mxGeometry>
        </mxCell>
        <mxCell id="g3BM4RpCBtxZuqTighNJ-34" value="" style="shape=tableRow;horizontal=0;startSize=0;swimlaneHead=0;swimlaneBody=0;strokeColor=inherit;top=0;left=0;bottom=0;right=0;collapsible=0;dropTarget=0;fillColor=none;points=[[0,0.5],[1,0.5]];portConstraint=eastwest;fontSize=16;" vertex="1" parent="g3BM4RpCBtxZuqTighNJ-29">
          <mxGeometry y="73" width="260" height="37" as="geometry" />
        </mxCell>
        <mxCell id="g3BM4RpCBtxZuqTighNJ-35" value="" style="shape=partialRectangle;html=1;whiteSpace=wrap;connectable=0;strokeColor=inherit;overflow=hidden;fillColor=none;top=0;left=0;bottom=0;right=0;pointerEvents=1;fontSize=16;" vertex="1" parent="g3BM4RpCBtxZuqTighNJ-34">
          <mxGeometry width="80" height="37" as="geometry">
            <mxRectangle width="80" height="37" as="alternateBounds" />
          </mxGeometry>
        </mxCell>
        <mxCell id="g3BM4RpCBtxZuqTighNJ-36" value="" style="shape=partialRectangle;html=1;whiteSpace=wrap;connectable=0;strokeColor=inherit;overflow=hidden;fillColor=none;top=0;left=0;bottom=0;right=0;pointerEvents=1;fontSize=16;" vertex="1" parent="g3BM4RpCBtxZuqTighNJ-34">
          <mxGeometry x="80" width="90" height="37" as="geometry">
            <mxRectangle width="90" height="37" as="alternateBounds" />
          </mxGeometry>
        </mxCell>
        <mxCell id="g3BM4RpCBtxZuqTighNJ-37" value="" style="shape=partialRectangle;html=1;whiteSpace=wrap;connectable=0;strokeColor=inherit;overflow=hidden;fillColor=none;top=0;left=0;bottom=0;right=0;pointerEvents=1;fontSize=16;" vertex="1" parent="g3BM4RpCBtxZuqTighNJ-34">
          <mxGeometry x="170" width="90" height="37" as="geometry">
            <mxRectangle width="90" height="37" as="alternateBounds" />
          </mxGeometry>
        </mxCell>
      </root>
    </mxGraphModel>
  </diagram>
</mxfile>
